<?xml version="1.0" encoding="utf-8"?>
<!-- Generator: Adobe Illustrator 15.1.0, SVG Export Plug-In . SVG Version: 6.00 Build 0)  -->
<!DOCTYPE svg PUBLIC "-//W3C//DTD SVG 1.1//EN" "http://www.w3.org/Graphics/SVG/1.1/DTD/svg11.dtd">
<svg version="1.1" id="Ebene_1" xmlns="http://www.w3.org/2000/svg" xmlns:xlink="http://www.w3.org/1999/xlink" x="0px" y="0px"
	 width="32px" height="32px" viewBox="0 0 32 32" enable-background="new 0 0 32 32" xml:space="preserve">
<g>
	<g>
		<path fill="#FFFFFF" d="M20.967,9.129c-0.623-0.194-1.25-0.39-1.871-0.583v9.293c0.619-0.207,1.246-0.414,1.871-0.62V9.129z"/>
	</g>
	<g>
		<path fill="#FFFFFF" d="M24.484,10.222c-0.584-0.181-1.213-0.375-1.869-0.58v7.038c0.65-0.211,1.277-0.41,1.869-0.596V10.222z"/>
		<path fill="#FFFFFF" d="M27.82,11.236c-0.246-0.068-0.857-0.252-1.688-0.506v4.852c0.635-0.188,1.178-0.339,1.582-0.437
			c2.354-0.567,3.246-1.005,3.246-1.987C30.961,12.176,29.85,11.791,27.82,11.236z"/>
	</g>
	<path fill="#FFFFFF" d="M12.353,6.383c0,0-1.533,0.001-2.501,0.924L3.804,11.69V7.472c0.488-0.341,0.812-0.927,0.812-1.596
		c0-1.055-0.802-1.91-1.789-1.91c-0.986,0-1.787,0.855-1.787,1.91c0,0.63,0.29,1.185,0.731,1.533v20.624h2.033V14.554l5.984,4.514
		c0.471,0.555,1.252,1.019,2.564,1.019c0,0,0.604-0.21,1.577-0.544V6.878C12.961,6.575,12.353,6.383,12.353,6.383z M9.077,16.466
		L4.641,13.12l4.436-3.214V16.466z"/>
	<g>
		<path fill="#FFFFFF" d="M17.447,8.029c-0.659-0.206-1.291-0.404-1.869-0.585v11.583c0.576-0.197,1.209-0.412,1.869-0.635V8.029z"
			/>
	</g>
</g>
</svg>
