<?xml version="1.0" encoding="utf-8"?>
<!-- Generator: Adobe Illustrator 15.1.0, SVG Export Plug-In . SVG Version: 6.00 Build 0)  -->
<!DOCTYPE svg PUBLIC "-//W3C//DTD SVG 1.1//EN" "http://www.w3.org/Graphics/SVG/1.1/DTD/svg11.dtd">
<svg version="1.1" id="Ebene_1" xmlns="http://www.w3.org/2000/svg" xmlns:xlink="http://www.w3.org/1999/xlink" x="0px" y="0px"
	 width="32px" height="32px" viewBox="0 0 32 32" enable-background="new 0 0 32 32" xml:space="preserve">
<g>
	<path fill="#FFFFFF" d="M11.463,2.346"/>
	<path fill="#FFFFFF" d="M16,5.56c-0.177-0.018-0.355-0.028-0.537-0.028c-2.871,0-5.199,2.328-5.199,5.2
		c0,2.871,2.328,5.199,5.199,5.199c0.182,0,0.36-0.009,0.537-0.027V5.56z"/>
	<path fill="#FFFFFF" d="M16,19.283c0.178-0.02,0.356-0.029,0.538-0.029c2.871,0,5.199,2.328,5.199,5.201
		c0,2.871-2.328,5.199-5.199,5.199c-0.182,0-0.36-0.01-0.538-0.027V19.283z"/>
	<path fill="#FFFFFF" d="M28.033,17.594c0.018-0.178,0.027-0.357,0.027-0.539c0-2.871-2.328-5.199-5.199-5.199
		s-5.199,2.328-5.199,5.199c0,0.182,0.01,0.361,0.027,0.539H28.033z"/>
	<path fill="#FFFFFF" d="M14.31,17.594c0.018,0.176,0.028,0.355,0.028,0.537c0,2.871-2.328,5.199-5.2,5.199
		c-2.871,0-5.199-2.328-5.199-5.199c0-0.182,0.01-0.361,0.027-0.537H14.31z"/>
</g>
</svg>
