<?xml version="1.0" encoding="utf-8"?>
<!-- Generator: Adobe Illustrator 15.1.0, SVG Export Plug-In . SVG Version: 6.00 Build 0)  -->
<!DOCTYPE svg PUBLIC "-//W3C//DTD SVG 1.1//EN" "http://www.w3.org/Graphics/SVG/1.1/DTD/svg11.dtd">
<svg version="1.1" id="Ebene_1" xmlns="http://www.w3.org/2000/svg" xmlns:xlink="http://www.w3.org/1999/xlink" x="0px" y="0px"
	 width="32px" height="32px" viewBox="0 0 32 32" enable-background="new 0 0 32 32" xml:space="preserve">
<g>
	<path fill="#FFFFFF" d="M28.192,7.078V4.372h-0.015V1.502c0,0,0-1.405-0.659-1.405h-0.694c0,0-0.659,0-0.659,1.405v2.869H5.82
		V1.502c0,0,0-1.405-0.659-1.405H4.468c0,0-0.659,0-0.659,1.405v2.869H3.808v2.706h0.001v8.253H3.808v2.705h0.001v7.844H3.808v2.705
		h0.001v1.912c0,0,0,1.405,0.659,1.405h0.693c0,0,0.659,0,0.659-1.405v-1.912h20.345v1.912c0,0,0,1.405,0.659,1.405h0.694
		c0,0,0.659,0,0.659-1.405v-1.912h0.015V25.88h-0.015v-7.844h0.015v-2.705h-0.015V7.078H28.192z M26.165,25.88H5.82v-7.844h20.345
		V25.88z M26.165,15.331H5.82V7.078h20.345V15.331z"/>
	<path fill="#FFFFFF" d="M12.587,10.319c0,0,0-1-1-0.998L7.784,9.328c0,0-1,0.001-1,1.001v3.472c0,0,0,1,1,1.001l3.803,0.008
		c0,0,1,0.002,1-0.999V10.319z"/>
	<path fill="#FFFFFF" d="M12.587,20.538c0,0,0-1-1-0.998l-3.803,0.007c0,0-1,0.001-1,1.001v3.473c0,0,0,1,1,1.002l3.803,0.007
		c0,0,1,0.002,1-0.998V20.538z"/>
	<path fill="#FFFFFF" d="M18.05,20.538c0,0,0-1-1-0.998l-2.668,0.007c0,0-1,0.001-1,1.001v3.473c0,0,0,1,1,1.002l2.668,0.007
		c0,0,1,0.002,1-0.998V20.538z"/>
	<path fill="#FFFFFF" d="M10.625,0.779c0,0,0-0.683-0.822-0.681L7.607,0.102c0,0-0.823,0.001-0.823,0.683v2.37
		c0,0,0,0.683,0.823,0.683l2.195,0.005c0,0,0.822,0.002,0.822-0.682V0.779z"/>
	<path fill="#FFFFFF" d="M17.223,11.71c0,0,0-0.683-0.823-0.681l-2.195,0.004c0,0-0.822,0.001-0.822,0.683v2.37
		c0,0,0,0.683,0.822,0.683l2.195,0.006c0,0,0.823,0.002,0.823-0.682V11.71z"/>
</g>
</svg>
