<?xml version="1.0" encoding="utf-8"?>
<!-- Generator: Adobe Illustrator 15.1.0, SVG Export Plug-In . SVG Version: 6.00 Build 0)  -->
<!DOCTYPE svg PUBLIC "-//W3C//DTD SVG 1.1//EN" "http://www.w3.org/Graphics/SVG/1.1/DTD/svg11.dtd">
<svg version="1.1" id="Ebene_1" xmlns="http://www.w3.org/2000/svg" xmlns:xlink="http://www.w3.org/1999/xlink" x="0px" y="0px"
	 width="32px" height="32px" viewBox="0 0 32 32" enable-background="new 0 0 32 32" xml:space="preserve">
<path fill="#FFFFFF" d="M28.62,11.592c-0.472-0.65-1.381-0.796-2.03-0.325l-3.26,1.742l1.745-6.941c0,0,0.838-3.333-2.6-3.333H9.565
	c0,0-3.437,0-2.599,3.333l1.693,6.732L5.41,11.064c-0.65-0.471-1.559-0.325-2.03,0.325s-0.325,1.559,0.325,2.029l3.746,3.617v2.371
	c0,1.155,0.766,2.875,2.875,2.875h4.753v3.455c-1.144,0.188-2.288,0.785-3.432,1.825l-1.452,0.332
	c-0.378,0.034-0.657,0.367-0.623,0.745c0.033,0.378,0.367,0.657,0.745,0.623h11.365c0.378,0.034,0.711-0.245,0.745-0.623
	s-0.246-0.711-0.623-0.745l-1.555-0.355c-0.062-0.051-0.139-0.113-0.238-0.192c-1.03-0.823-2.062-1.353-3.092-1.568v-3.496h4.753
	c1.155,0,2.875-0.766,2.875-2.875v-2.168l3.747-3.617C28.944,13.151,29.091,12.242,28.62,11.592z M22.798,19.406
	c0,0.956-0.707,1.115-1.131,1.125h-11.34c-0.958,0-1.116-0.71-1.125-1.125v-2.819c0-0.518,0.209-0.797,0.465-0.95
	c0.539,0.781,1.494,1.631,3.115,1.631h6.043c0,0,2.152-0.007,3.465-1.663c0.413,0.228,0.502,0.682,0.509,0.982V19.406z"/>
</svg>
