<?xml version="1.0" encoding="utf-8"?>
<!-- Generator: Adobe Illustrator 15.1.0, SVG Export Plug-In . SVG Version: 6.00 Build 0)  -->
<!DOCTYPE svg PUBLIC "-//W3C//DTD SVG 1.1//EN" "http://www.w3.org/Graphics/SVG/1.1/DTD/svg11.dtd">
<svg version="1.1" id="Ebene_1" xmlns="http://www.w3.org/2000/svg" xmlns:xlink="http://www.w3.org/1999/xlink" x="0px" y="0px"
	 width="32px" height="32px" viewBox="0 0 32 32" enable-background="new 0 0 32 32" xml:space="preserve">
<path fill="none" stroke="#000000" stroke-width="1.294" d="M28.524,8.692"/>
<path fill="#FFFFFF" d="M22.294,30.425l-1.602-0.366c-0.048-0.051-0.124-0.119-0.261-0.228c-1.143-0.902-2.281-1.481-3.418-1.708
	V13.521c4.075-0.382,4.939-3.203,5.115-4.413c0.396-0.217,0.676-0.645,0.676-1.153c0-0.723-0.549-1.308-1.225-1.308
	s-1.225,0.585-1.225,1.308c0,0.358,0.136,0.681,0.354,0.917c-0.361,1.203-1.304,2.665-3.696,2.975V6.962
	c4.076-0.382,4.94-3.204,5.115-4.413c0.396-0.217,0.676-0.645,0.676-1.152c0-0.723-0.549-1.308-1.225-1.308
	s-1.225,0.585-1.225,1.308c0,0.357,0.136,0.681,0.354,0.917c-0.36,1.202-1.303,2.664-3.695,2.974V0.83h-2.025v4.437
	C12.58,4.881,11.69,3.234,11.37,2.188c0.162-0.222,0.275-0.488,0.275-0.792c0-0.723-0.549-1.308-1.225-1.308
	c-0.676,0-1.225,0.585-1.225,1.308c0,0.575,0.354,1.05,0.838,1.224c0.401,2.517,2.129,4.024,4.955,4.321v4.882
	C12.58,11.44,11.69,9.793,11.37,8.747c0.162-0.222,0.275-0.489,0.275-0.792c0-0.723-0.549-1.308-1.225-1.308
	c-0.676,0-1.225,0.585-1.225,1.308c0,0.576,0.354,1.05,0.838,1.225c0.401,2.517,2.129,4.024,4.955,4.321v14.605
	c-1.2,0.217-2.398,0.848-3.6,1.934l-1.683,0.385c-0.409,0.035-0.712,0.397-0.676,0.808c0.037,0.41,0.399,0.712,0.808,0.676h12.324
	c0.41,0.036,0.771-0.266,0.808-0.676S22.704,30.46,22.294,30.425z"/>
</svg>
