<?xml version="1.0" encoding="utf-8"?>
<!-- Generator: Adobe Illustrator 15.1.0, SVG Export Plug-In . SVG Version: 6.00 Build 0)  -->
<!DOCTYPE svg PUBLIC "-//W3C//DTD SVG 1.1//EN" "http://www.w3.org/Graphics/SVG/1.1/DTD/svg11.dtd">
<svg version="1.1" id="Ebene_1" xmlns="http://www.w3.org/2000/svg" xmlns:xlink="http://www.w3.org/1999/xlink" x="0px" y="0px"
	 width="32px" height="32px" viewBox="0 0 32 32" enable-background="new 0 0 32 32" xml:space="preserve">
<path fill="none" stroke="#000000" stroke-width="1.294" d="M28.524,8.692"/>
<path fill="#FFFFFF" d="M24.715,2.737c0.179-0.548-0.042-1.163-0.504-1.399c-0.484-0.252-1.089,0.037-1.281,0.611
	c-0.012,0.036-0.868,2.524-3.171,4.007c0.908-2.108,1.169-4.46,1.173-4.502c0.053-0.598-0.324-1.139-0.839-1.206l-0.109-0.007
	c-0.492,0-0.901,0.426-0.95,0.984c-0.134,1.195-0.742,4.142-1.954,5.312V6.379h-2.158v0.113c-1.237-1.283-1.845-4.504-1.955-5.52
	c-0.053-0.561-0.461-0.983-0.948-0.983l-0.119,0.009c-0.521,0.074-0.885,0.605-0.831,1.209c0.004,0.043,0.252,2.377,1.119,4.518
	c-2.085-1.522-3.139-3.836-3.153-3.869c-0.234-0.55-0.872-0.771-1.329-0.47C7.268,1.672,7.099,2.306,7.32,2.831
	c0.023,0.056,2.106,4.836,6.515,6.1l-1.468,1.623c-0.267,0.223-0.301,0.62-0.078,0.887c0.225,0.266,0.621,0.3,0.888,0.076
	l1.355-0.848v0.836l-1.696,0.74c-0.098,0.02-0.19,0.051-0.274,0.102c-0.049,0.021-0.12,0.047-0.207,0.079
	c-1.368,0.519-2.844,1.202-3.414,2.338c-0.61,1.213-0.61,1.213-1.522,2.622c-0.172,0.265-0.185,0.602-0.034,0.879
	c0.083,0.152,0.208,0.273,0.356,0.352c0.257,0.208,1.143,1.081,1.861,1.817c0.188,0.191,0.456,0.288,0.724,0.252
	c0.21-0.026,0.4-0.129,0.537-0.285c-0.03,1.216-0.091,2.684-0.165,4.058c-0.013,0.242,0.076,0.478,0.246,0.65
	c0.162,0.165,0.383,0.257,0.613,0.257c0.011,0,0.021,0,0.033,0l3.332-0.129v3.463c-0.998,0.22-1.997,0.769-2.996,1.674l-1.455,0.332
	c-0.359,0.032-0.625,0.351-0.594,0.71c0.032,0.36,0.35,0.626,0.711,0.594h10.827c0.36,0.032,0.678-0.233,0.71-0.594
	c0.032-0.359-0.233-0.678-0.594-0.71l-1.424-0.324c-0.05-0.048-0.116-0.107-0.23-0.197c-0.934-0.741-1.866-1.229-2.797-1.452v-3.438
	c1.161-0.045,2.369-0.808,2.367-2.491c-0.064-0.938-0.12-1.963-0.153-2.848c0.27,0.166,0.615,0.284,1.024,0.284c0,0,0,0,0.001,0
	c0.386,0,0.792-0.104,1.248-0.334c0,0,0.73-0.418,0.955-0.521c0.194-0.066,0.367-0.2,0.475-0.373
	c0.126-0.205,0.229-0.545-0.002-1.006c-0.026-0.052-0.129-0.239-0.279-0.512c-0.373-0.677-1.057-1.917-1.51-2.82
	c-0.017-0.032-0.035-0.063-0.055-0.094c-0.568-0.847-1.979-1.42-3.257-1.892c-0.133-0.05-0.24-0.088-0.308-0.115
	c-0.144-0.087-0.316-0.14-0.481-0.123c-0.009,0-0.017,0.007-0.025,0.008V10.43l1.737,1.086c0.266,0.224,0.663,0.189,0.886-0.076
	c0.224-0.267,0.189-0.664-0.076-0.887l-1.43-1.581C22.9,7.78,24.632,2.975,24.715,2.737z M14.921,23.515l-2.457,0.094
	c0.312-6.192,0.059-6.461-0.21-6.745c-0.162-0.171-0.41-0.279-0.646-0.279c-0.309,0-0.645,0.214-0.798,0.482l-0.776,1.354
	c-0.308-0.309-0.556-0.551-0.758-0.74c0.563-0.877,0.666-1.078,1.202-2.144c0.315-0.63,1.686-1.193,2.325-1.439
	c0.575,0.422,1.367,0.616,2.118,0.697V23.515z M13.872,12.74l1.05-0.458v0.772C14.418,12.98,14.064,12.856,13.872,12.74z
	 M17.334,14.316c1.334,0.494,2.128,0.894,2.363,1.19c0.431,0.854,1.046,1.975,1.43,2.671c-0.109,0.061-0.231,0.13-0.369,0.208
	c-0.218,0.109-0.359,0.132-0.439,0.132c-0.09-0.001-0.124-0.028-0.104,0.005c0,0-0.47-0.74-0.881-1.457
	c-0.255-0.445-0.651-0.494-0.81-0.494c-0.238,0-0.49,0.111-0.653,0.286c-0.268,0.288-0.521,0.558-0.144,6.003
	c0,0.188-0.008,0.662-0.648,0.71v-9.132C17.161,14.396,17.262,14.366,17.334,14.316z"/>
</svg>
