<?xml version="1.0" encoding="utf-8"?>
<!-- Generator: Adobe Illustrator 15.1.0, SVG Export Plug-In . SVG Version: 6.00 Build 0)  -->
<!DOCTYPE svg PUBLIC "-//W3C//DTD SVG 1.1//EN" "http://www.w3.org/Graphics/SVG/1.1/DTD/svg11.dtd">
<svg version="1.1" id="Ebene_1" xmlns="http://www.w3.org/2000/svg" xmlns:xlink="http://www.w3.org/1999/xlink" x="0px" y="0px"
	 width="32px" height="32px" viewBox="0 0 32 32" enable-background="new 0 0 32 32" xml:space="preserve">
<rect x="107" y="-9.583" fill="none" width="28.717" height="25.583"/>
<path fill="#FFFFFF" d="M8.057,11.324c0.363,0.065,0.686,0.097,0.991,0.114c0.026,1.81,0.743,3.452,1.893,4.686
	c-0.728,0.507-1.313,1.408-1.094,3.014l1.059,7.761c0,0,0.27,1.98,2.27,1.98h5.064c0,0,3,0,3.406-2.972l0.923-6.77
	c0,0,0.29-2.143-1.225-3.154c1.08-1.225,1.746-2.822,1.764-4.575c0.277-0.017,0.554-0.042,0.825-0.085
	C24.66,0.413,7.495,0.358,8.057,11.324z M16.078,16.701c-2.957,0-5.363-2.406-5.363-5.363c0-0.033,0.009-0.064,0.01-0.097
	c1.708-0.606,2.138-2.422,3.374-4.052c1.006,2.056,4.131,3.83,7.338,4.174C21.424,14.309,19.025,16.701,16.078,16.701z"/>
</svg>
