<?xml version="1.0" encoding="utf-8"?>
<!-- Generator: Adobe Illustrator 15.1.0, SVG Export Plug-In . SVG Version: 6.00 Build 0)  -->
<!DOCTYPE svg PUBLIC "-//W3C//DTD SVG 1.1//EN" "http://www.w3.org/Graphics/SVG/1.1/DTD/svg11.dtd">
<svg version="1.1" id="Ebene_1" xmlns="http://www.w3.org/2000/svg" xmlns:xlink="http://www.w3.org/1999/xlink" x="0px" y="0px"
	 width="32px" height="32px" viewBox="0 0 32 32" enable-background="new 0 0 32 32" xml:space="preserve">
<g>
	<path fill="#FFFFFF" d="M6.544,21.51c0.594,0,1.075-0.481,1.075-1.075s-0.481-1.076-1.075-1.076s-1.075,0.482-1.075,1.076
		S5.95,21.51,6.544,21.51"/>
	<path fill="#FFFFFF" d="M25.455,21.51c0.595,0,1.075-0.481,1.075-1.075s-0.48-1.076-1.075-1.076c-0.594,0-1.074,0.482-1.074,1.076
		S24.861,21.51,25.455,21.51"/>
	<path fill="#FFFFFF" d="M6.544,28.15c0.594,0,1.075-0.48,1.075-1.074C7.619,26.481,7.138,26,6.544,26s-1.075,0.481-1.075,1.076
		C5.469,27.67,5.95,28.15,6.544,28.15"/>
	<path fill="#FFFFFF" d="M25.455,28.15c0.595,0,1.075-0.48,1.075-1.074c0-0.595-0.48-1.076-1.075-1.076
		c-0.594,0-1.074,0.481-1.074,1.076C24.381,27.67,24.861,28.15,25.455,28.15"/>
	<path fill="#FFFFFF" d="M26.87,16.343h-0.982c-0.394-3.46-3.194-5.243-3.194-7.641V3.145c0-1.418-1.418-1.418-1.418-1.418h-0.153
		H20.87h-0.152c0,0-1.419,0-1.419,1.418v5.558c0,0.546-0.156,1.06-0.386,1.568c-0.28-0.535-0.475-1.05-0.475-1.568V3.145
		c0-1.633-1.33-2.226-2.225-2.226h-0.559c-0.895,0-2.225,0.593-2.225,2.226v5.558c0,0.51-0.187,1.016-0.459,1.541
		c-0.222-0.5-0.367-1.005-0.367-1.541V3.145c0-1.418-1.418-1.418-1.418-1.418h-0.152h-0.252h-0.154c0,0-1.418,0-1.418,1.418v5.558
		c0,2.397-2.8,4.181-3.193,7.641H5.13c-1.146,0-2.851,0.759-2.851,2.851v9.037c0,1.146,0.759,2.851,2.851,2.851h21.74
		c1.146,0,2.851-0.759,2.851-2.851v-9.037C29.721,18.048,28.962,16.343,26.87,16.343z M13.898,11.875
		c0.625-1.005,1.146-1.996,1.146-3.173V3.145c0-0.146,0-0.593,0.611-0.611h0.559c0.228,0,0.611,0.079,0.611,0.611v5.558
		c0,1.384,0.72,2.511,1.482,3.705c0.742,1.162,1.502,2.362,1.705,3.936h-4.21C15.591,14.489,14.69,13.117,13.898,11.875z
		 M28.02,28.23c0,1.013-0.806,1.142-1.155,1.149H5.13c-1.016,0-1.142-0.81-1.149-1.149v-2.495c0-1.016,0.81-1.143,1.149-1.149h21.74
		c1.016,0,1.143,0.81,1.149,1.149V28.23z M28.02,21.688c0,1.013-0.806,1.142-1.155,1.149H5.13c-1.016,0-1.142-0.81-1.149-1.149
		v-2.495c0-1.016,0.81-1.143,1.149-1.149h21.74c1.016,0,1.143,0.81,1.149,1.149V21.688z"/>
</g>
</svg>
