<?xml version="1.0" encoding="utf-8"?>
<!-- Generator: Adobe Illustrator 15.1.0, SVG Export Plug-In . SVG Version: 6.00 Build 0)  -->
<!DOCTYPE svg PUBLIC "-//W3C//DTD SVG 1.1//EN" "http://www.w3.org/Graphics/SVG/1.1/DTD/svg11.dtd">
<svg version="1.1" id="Ebene_1" xmlns="http://www.w3.org/2000/svg" xmlns:xlink="http://www.w3.org/1999/xlink" x="0px" y="0px"
	 width="32px" height="32px" viewBox="0 0 32 32" enable-background="new 0 0 32 32" xml:space="preserve">
<g>
	<path fill="#FFFFFF" d="M30.154,13.251c-0.363-0.5-1.062-0.611-1.562-0.25l-2.564,1.372v-1.218h-3.833h-11.83H6.531v1.517
		l-3.123-1.671c-0.5-0.361-1.199-0.25-1.562,0.25c-0.362,0.501-0.25,1.199,0.25,1.562l4.435,4.281v4.946v0.45
		c0,2.118,1.082,3.201,3.199,3.201h13.097c2.117,0,3.2-1.083,3.2-3.201v-0.45v-5.484l3.877-3.743
		C30.404,14.45,30.516,13.752,30.154,13.251z"/>
	<path fill="#FFFFFF" d="M25.65,9.566L21.117,8.53c-0.49-1.759-1.873-4.223-4.838-4.223c-2.967,0-4.414,2.471-4.952,4.213
		L6.751,9.566c-0.615,0.055-1.069,0.598-1.015,1.212c0.055,0.616,0.598,1.07,1.213,1.015h18.501
		c0.615,0.055,1.159-0.399,1.213-1.015C26.719,10.164,26.265,9.621,25.65,9.566z M13.242,8.222c0.491-0.815,1.393-1.661,3.038-1.661
		c1.642,0,2.506,0.844,2.96,1.662C17.882,8.203,14.672,8.202,13.242,8.222z"/>
</g>
</svg>
