<?xml version="1.0" encoding="utf-8"?>
<!-- Generator: Adobe Illustrator 15.1.0, SVG Export Plug-In . SVG Version: 6.00 Build 0)  -->
<!DOCTYPE svg PUBLIC "-//W3C//DTD SVG 1.1//EN" "http://www.w3.org/Graphics/SVG/1.1/DTD/svg11.dtd">
<svg version="1.1" id="Ebene_1" xmlns="http://www.w3.org/2000/svg" xmlns:xlink="http://www.w3.org/1999/xlink" x="0px" y="0px"
	 width="32px" height="32px" viewBox="0 0 32 32" enable-background="new 0 0 32 32" xml:space="preserve">
<g>
	<path fill="#FFFFFF" d="M8.425,11.034c0.217,0.039,0.417,0.065,0.611,0.085c-0.001,0.044-0.007,0.086-0.007,0.13
		c0,2.067,0.901,3.922,2.326,5.211c-0.417,0.434-0.761,1.028-0.878,1.889l-0.924,6.77c0,0-0.501,3.672,3.204,3.672h6.314
		c0,0,3.706,0,3.205-3.672l-1.06-7.76c0,0-0.076-0.473-0.382-0.956c1.388-1.286,2.264-3.118,2.264-5.154
		c0-0.055-0.007-0.108-0.008-0.163c0.159-0.016,0.318-0.029,0.476-0.053C24.261,0.628,7.889,0.574,8.425,11.034z M16.064,16.612
		c-2.957,0-5.363-2.406-5.363-5.363c0-0.074,0.019-0.143,0.021-0.217c1.804-0.488,2.137-2.315,3.37-3.943
		c0.984,2.011,4.157,3.744,7.319,4.009c0.002,0.051,0.016,0.099,0.016,0.151C21.428,14.207,19.021,16.612,16.064,16.612z"/>
	<path fill="#FFFFFF" d="M7.951,11.191c0.781,0.113,0.505,1.359,0.474,1.735c-0.252,2.942-3.567,5.479-6.783,5.048
		C1.787,13.757,4.022,11.626,7.951,11.191"/>
	<path fill="#FFFFFF" d="M30.351,17.975c-4.431,0.014-6.635-2.198-6.783-6.467C26.914,10.777,30.548,13.609,30.351,17.975"/>
</g>
<rect x="107" y="-9.583" fill="none" width="28.717" height="25.583"/>
</svg>
