<?xml version="1.0" encoding="utf-8"?>
<!-- Generator: Adobe Illustrator 15.1.0, SVG Export Plug-In . SVG Version: 6.00 Build 0)  -->
<!DOCTYPE svg PUBLIC "-//W3C//DTD SVG 1.1//EN" "http://www.w3.org/Graphics/SVG/1.1/DTD/svg11.dtd">
<svg version="1.1" id="Ebene_1" xmlns="http://www.w3.org/2000/svg" xmlns:xlink="http://www.w3.org/1999/xlink" x="0px" y="0px"
	 width="32px" height="32px" viewBox="0 0 32 32" enable-background="new 0 0 32 32" xml:space="preserve">
<g>
	<path fill="#FFFFFF" d="M15.46,5.027c0,0,0-1.991-1.991-1.988l-5.312,0.01c0,0-1,0.002-1,1.002v4.839c0,0,0,1.991,1.992,1.995
		l4.32,0.008c0,0,1.991,0.003,1.991-1.988V5.027z"/>
	<path fill="#FFFFFF" d="M24.804,5.027c0,0,0-1.991-1.991-1.988L17.5,3.049c0,0-1,0.002-1,1.002v4.839c0,0,0,1.991,1.992,1.995
		l4.32,0.008c0,0,1.991,0.003,1.991-1.988V5.027z"/>
	<path fill="#FFFFFF" d="M30.516,23.409c0.062-0.701-0.456-1.32-1.156-1.384H2.641c-0.701,0.063-1.219,0.683-1.156,1.384
		c0.062,0.7,0.681,1.219,1.382,1.156h1.628l-1.41,2.618c-0.363,0.5-0.251,1.2,0.25,1.563s1.202,0.251,1.565-0.251l3.795-3.931
		h14.927l3.795,3.931c0.363,0.502,1.064,0.614,1.565,0.251s0.612-1.063,0.25-1.563l-1.41-2.618h1.311
		C29.834,24.628,30.454,24.109,30.516,23.409z"/>
	<path fill="#FFFFFF" d="M29.725,17.223l-2.132-3.256c-1.38-2.109-3.838-2.109-3.838-2.109h-7.633H8.49c0,0-2.457,0-3.838,2.109
		L2.52,17.223c0,0-2.366,3.616,1.847,3.616h11.755h11.757C32.092,20.839,29.725,17.223,29.725,17.223"/>
</g>
</svg>
