<?xml version="1.0" encoding="utf-8"?>
<!-- Generator: Adobe Illustrator 15.1.0, SVG Export Plug-In . SVG Version: 6.00 Build 0)  -->
<!DOCTYPE svg PUBLIC "-//W3C//DTD SVG 1.1//EN" "http://www.w3.org/Graphics/SVG/1.1/DTD/svg11.dtd">
<svg version="1.1" id="Ebene_1" xmlns="http://www.w3.org/2000/svg" xmlns:xlink="http://www.w3.org/1999/xlink" x="0px" y="0px"
	 width="32px" height="32px" viewBox="0 0 32 32" enable-background="new 0 0 32 32" xml:space="preserve">
<path fill="#FFFFFF" d="M23.439,15.464c1.025-1.25,1.665-2.945,1.889-5.072l0.063-0.601l-0.579-0.169
	c-0.406-0.119-0.826-0.184-1.251-0.218c0.014-0.828-0.056-1.71-0.219-2.652c-1.318-0.004-2.583,0.381-3.7,1.048
	c-0.872-3.062-2.976-5.457-5.772-6.57l-0.684-0.272l-0.391,0.625c-1.495,2.391-2.267,4.674-2.334,6.821
	C9.214,7.954,7.872,7.81,6.544,8.051c-0.001,3.229,0.828,5.683,2.509,7.342c-1.047,0.21-2.832,0.95-2.386,3.583l1.423,8.398
	c0,0,0.622,3.669,4.343,3.669h7.221c0,0,3.723,0,4.345-3.669l1.423-8.398C25.421,18.976,25.885,16.135,23.439,15.464z
	 M17.001,16.569c0.455-4.001,3.889-6.177,6.808-5.696C23.205,14.788,20.95,16.654,17.001,16.569z M13.896,3.179
	c1.946,1.007,3.404,2.833,4.052,5.111c0.066,0.233,0.112,0.471,0.159,0.708c-1.242,1.239-2.12,2.916-2.402,4.844
	c-0.67-1.949-1.924-3.515-3.474-4.544C12.085,7.413,12.639,5.379,13.896,3.179z"/>
</svg>
