<?xml version="1.0" encoding="utf-8"?>
<!-- Generator: Adobe Illustrator 15.1.0, SVG Export Plug-In . SVG Version: 6.00 Build 0)  -->
<!DOCTYPE svg PUBLIC "-//W3C//DTD SVG 1.1//EN" "http://www.w3.org/Graphics/SVG/1.1/DTD/svg11.dtd">
<svg version="1.1" id="Ebene_1" xmlns="http://www.w3.org/2000/svg" xmlns:xlink="http://www.w3.org/1999/xlink" x="0px" y="0px"
	 width="32px" height="32px" viewBox="0 0 32 32" enable-background="new 0 0 32 32" xml:space="preserve">
<g>
	<path fill="#FFFFFF" d="M11.787,6.358V6.36L4.316,6.371c0,0-2.304,0.003-2.304,2.361v1.279C2.084,10,2.153,9.977,2.228,9.97
		c1.555-0.139,2.927,1.011,3.066,2.563v3.782l6.494,0.01v0.002h3.668V6.358H11.787z"/>
	<path fill="#FFFFFF" d="M26.765,12.534c0.14-1.553,1.512-2.702,3.066-2.563c0.049,0.004,0.093,0.021,0.141,0.027V8.713
		c0,0,0-2.358-2.304-2.355l-7.472,0.011V6.358h-3.519v9.969h3.519v-0.011l6.568,0.01V12.534z"/>
	<path fill="#FFFFFF" d="M31.275,12.792c-0.085-0.963-0.937-1.676-1.901-1.59c-0.964,0.086-1.676,0.937-1.59,1.9v4.468H4.223v-4.779
		c-0.085-0.963-0.937-1.676-1.901-1.59s-1.676,0.937-1.59,1.9v6.019c-0.011,0.127-0.007,0.252,0.008,0.374
		c-0.01,0.112-0.012,0.218-0.004,0.312c0.065,0.737,0.716,1.281,1.453,1.216H3.9l-1.481,2.751c-0.381,0.525-0.263,1.262,0.263,1.644
		c0.527,0.381,1.263,0.263,1.644-0.263l3.989-4.132h15.688l3.989,4.132c0.381,0.525,1.117,0.644,1.644,0.263
		c0.526-0.382,0.645-1.118,0.264-1.644l-1.481-2.751h1.377c0.737,0.065,1.388-0.479,1.453-1.216c0.006-0.066,0.001-0.144-0.002-0.22
		c0.009-0.052,0.024-0.102,0.029-0.155V12.792z"/>
</g>
</svg>
