<?xml version="1.0" encoding="utf-8"?>
<!-- Generator: Adobe Illustrator 15.1.0, SVG Export Plug-In . SVG Version: 6.00 Build 0)  -->
<!DOCTYPE svg PUBLIC "-//W3C//DTD SVG 1.1//EN" "http://www.w3.org/Graphics/SVG/1.1/DTD/svg11.dtd">
<svg version="1.1" id="Ebene_1" xmlns="http://www.w3.org/2000/svg" xmlns:xlink="http://www.w3.org/1999/xlink" x="0px" y="0px"
	 width="32px" height="32px" viewBox="0 0 32 32" enable-background="new 0 0 32 32" xml:space="preserve">
<g>
	<path fill="#FFFFFF" d="M31.01,11.444h-3.134L27.871,8.36c0.016-1.566-0.389-2.873-1.139-3.68
		c-0.557-0.598-1.371-0.928-2.293-0.928c-1.24,0-2.184,0.385-2.881,1.178c-1.188,1.348-0.996,3.172-0.971,3.375l0.029,0.223
		l1.979-0.017l-0.027-0.274c-0.035-0.351-0.012-1.391,0.502-1.974c0.322-0.366,0.572-0.53,1.197-0.53c0.447,0,0.838,0.188,1.043,0.5
		c0.494,0.754,0.494,1.762,0.494,2.092v3.119H0.99c-0.58,0.052-1.009,0.564-0.957,1.145c0.051,0.58,0.564,1.009,1.144,0.957h29.646
		c0.582,0.052,1.094-0.377,1.145-0.957C32.02,12.009,31.59,11.496,31.01,11.444z"/>
	<path fill="#FFFFFF" d="M27.85,22.707l2.99-7.934H1.097l2.991,7.934c0.499,1.294,1.242,2.029,2.094,2.456l-0.754,1.41
		c-0.341,0.471-0.236,1.131,0.236,1.473s1.132,0.237,1.473-0.235l2.014-2.085c0.031,0,0.062,0.002,0.093,0.002h6.725h6.724
		c0.135,0,0.271-0.007,0.406-0.01l2.021,2.093c0.34,0.473,1,0.577,1.473,0.235c0.471-0.342,0.576-1.002,0.236-1.473L26,25.021
		C26.748,24.578,27.399,23.874,27.85,22.707z"/>
</g>
</svg>
