<?xml version="1.0" encoding="utf-8"?>
<!-- Generator: Adobe Illustrator 15.1.0, SVG Export Plug-In . SVG Version: 6.00 Build 0)  -->
<!DOCTYPE svg PUBLIC "-//W3C//DTD SVG 1.1//EN" "http://www.w3.org/Graphics/SVG/1.1/DTD/svg11.dtd">
<svg version="1.1" id="Ebene_1" xmlns="http://www.w3.org/2000/svg" xmlns:xlink="http://www.w3.org/1999/xlink" x="0px" y="0px"
	 width="32px" height="32px" viewBox="0 0 32 32" enable-background="new 0 0 32 32" xml:space="preserve">
<path fill="#FFFFFF" d="M23.519,17.854c-2.616-1.431-3.423-4.573-6.796-5.373c0.04-0.293-0.055-0.45-0.223-0.525v-0.53
	c0.549-0.331,1.664-1.119,1.838-2.158c0.065-0.389,0.023-0.978-0.549-1.573c-0.43-0.448-0.961-0.679-1.513-0.661
	c-1.153,0.031-2.068,1.054-2.168,1.17c-0.19,0.22-0.166,0.553,0.055,0.743c0.22,0.189,0.553,0.166,0.743-0.055
	c0.176-0.204,0.811-0.79,1.399-0.805c0.279-0.014,0.5,0.104,0.725,0.337c0.291,0.302,0.293,0.525,0.27,0.667
	c-0.111,0.668-1.195,1.365-1.566,1.556l-0.286,0.147v1.177c-0.136,0.084-0.204,0.244-0.168,0.508c-3.374,0.8-4.18,3.942-6.796,5.373
	c-3.065,1.677-9.229,2.283-7.901,7.111c4.582-0.367,9.911-0.382,15.345-0.343v0.001c0.025,0,0.049,0,0.074-0.001
	c0.025,0.001,0.05,0.001,0.075,0.001v-0.001c5.434-0.039,10.763-0.024,15.344,0.343C32.747,20.138,26.584,19.531,23.519,17.854z
	 M16.075,22.911h-0.149H5.48c3.329-2.06,7.23-4.378,10.52-5.971c3.291,1.593,7.191,3.911,10.521,5.971H16.075z"/>
<path fill="none" stroke="#000000" stroke-width="1.294" d="M28.524,8.692"/>
</svg>
