<?xml version="1.0" encoding="utf-8"?>
<!-- Generator: Adobe Illustrator 15.1.0, SVG Export Plug-In . SVG Version: 6.00 Build 0)  -->
<!DOCTYPE svg PUBLIC "-//W3C//DTD SVG 1.1//EN" "http://www.w3.org/Graphics/SVG/1.1/DTD/svg11.dtd">
<svg version="1.1" id="Ebene_1" xmlns="http://www.w3.org/2000/svg" xmlns:xlink="http://www.w3.org/1999/xlink" x="0px" y="0px"
	 width="32px" height="32px" viewBox="0 0 32 32" enable-background="new 0 0 32 32" xml:space="preserve">
<g>
	<path fill="#FFFFFF" d="M9.183,10.09c-0.745,0-1.371,1.982-1.562,4.681c0.211,0.012,0.422,0.023,0.624,0.037
		c0.918,0.06,1.614,0.853,1.555,1.771c-0.059,0.882-0.79,1.536-1.661,1.536c-0.189,0.006-0.362,0.01-0.521,0.014
		c0.185,2.732,0.814,4.749,1.565,4.749c0.896,0,1.623-2.863,1.623-6.395C10.806,12.952,10.079,10.09,9.183,10.09z"/>
	<path fill="#FFFFFF" d="M23.277,3.277L7.763,3.292C6.26,3.293,3.417,4.205,3.417,7.644v3.269H3.398L3.4,12.915
		c0.001,1.428,0.828,4.059,3.857,4.32c0,0,0.38,0.048,0.659,0.048l0.302-0.015c0.442-0.051,0.772-0.434,0.749-0.884
		c-0.024-0.453-0.409-0.807-0.855-0.799c-0.371-0.004-0.854-0.054-0.854-0.054C5.234,15.26,5.1,13.321,5.095,12.913l-0.002-2.001
		H5.11V7.644c0-2.498,2.216-2.652,2.654-2.657l15.521-0.015c3.491,0,3.62,3.257,3.623,3.624v3.7c0,1.938-1.325,2.46-2.128,2.602
		v-1.999c0,0,0-3.389-3.388-3.383L11.197,9.531c0,0-0.309,0.002-0.736,0.095c0.763,1.353,1.347,3.914,1.347,6.857
		c0,0.293-0.008,0.579-0.018,0.863c-0.005,0.131-0.013,0.259-0.02,0.387c-0.01,0.167-0.019,0.333-0.031,0.496
		c-0.01,0.128-0.021,0.254-0.033,0.379c-0.015,0.16-0.03,0.318-0.049,0.474c-0.014,0.119-0.028,0.238-0.044,0.355
		c-0.021,0.155-0.044,0.308-0.067,0.458c-0.018,0.108-0.034,0.218-0.054,0.324c-0.027,0.155-0.057,0.306-0.088,0.455
		c-0.019,0.093-0.037,0.187-0.057,0.276c-0.038,0.17-0.079,0.333-0.121,0.493c-0.016,0.061-0.03,0.124-0.047,0.184
		c-0.06,0.217-0.123,0.425-0.188,0.62c-0.01,0.026-0.02,0.05-0.029,0.077c-0.062,0.178-0.126,0.351-0.192,0.509
		c0.012,0.001,0.024,0.001,0.036,0.002v3.58c0.001,0.062,0.028,1.537,0.979,2.098c0.235,0.139,0.514,0.209,0.827,0.209
		c0.4,0,0.868-0.114,1.388-0.338l7.735-3.323c1.132-0.5,3.046-2.004,3.046-4.476v-0.938c0-0.021-0.005-0.041-0.006-0.062
		c0.001-0.032,0.006-0.06,0.006-0.092v-2.883c1.556-0.191,3.821-1.245,3.821-4.315v-3.7C28.602,6.756,27.491,3.277,23.277,3.277z
		 M21.059,23.508l-7.729,3.321c-0.312,0.134-0.55,0.189-0.683,0.198c-0.072-0.14-0.145-0.434-0.146-0.621v-3.542l8.893,0.013
		c0,0,0.292-0.002,0.699-0.085C21.598,23.263,21.096,23.491,21.059,23.508z"/>
</g>
</svg>
