<?xml version="1.0" encoding="utf-8"?>
<!-- Generator: Adobe Illustrator 15.1.0, SVG Export Plug-In . SVG Version: 6.00 Build 0)  -->
<!DOCTYPE svg PUBLIC "-//W3C//DTD SVG 1.1//EN" "http://www.w3.org/Graphics/SVG/1.1/DTD/svg11.dtd">
<svg version="1.1" id="Ebene_1" xmlns="http://www.w3.org/2000/svg" xmlns:xlink="http://www.w3.org/1999/xlink" x="0px" y="0px"
	 width="32px" height="32px" viewBox="0 0 32 32" enable-background="new 0 0 32 32" xml:space="preserve">
<path fill="#FFFFFF" d="M18.362,20.146c0-2.731-2.121-3.711-4.746-8.485c-0.002,0.002-0.003,0.004-0.004,0.006
	c-0.001-0.002-0.002-0.004-0.003-0.006c-2.626,4.774-4.747,5.754-4.747,8.485c0,2.781,1.891,5.035,4.747,5.035
	c0.001,0,0.002,0,0.003,0s0.002,0,0.004,0C16.472,25.181,18.362,22.927,18.362,20.146"/>
<path fill="#FFFFFF" d="M23.138,12.115c0-1.705-1.324-2.316-2.965-5.296c0,0.001-0.002,0.002-0.002,0.003
	c0-0.001-0.002-0.002-0.002-0.003c-1.641,2.979-2.966,3.591-2.966,5.296c0,1.735,1.181,3.143,2.966,3.143h0.002h0.002
	C21.958,15.258,23.138,13.851,23.138,12.115"/>
</svg>
