<?xml version="1.0" encoding="utf-8"?>
<!-- Generator: Adobe Illustrator 15.1.0, SVG Export Plug-In . SVG Version: 6.00 Build 0)  -->
<!DOCTYPE svg PUBLIC "-//W3C//DTD SVG 1.1//EN" "http://www.w3.org/Graphics/SVG/1.1/DTD/svg11.dtd">
<svg version="1.1" id="Ebene_1" xmlns="http://www.w3.org/2000/svg" xmlns:xlink="http://www.w3.org/1999/xlink" x="0px" y="0px"
	 width="32px" height="32px" viewBox="0 0 32 32" enable-background="new 0 0 32 32" xml:space="preserve">
<g>
	<path fill="#FFFFFF" d="M20.951,9.762c-0.349,0-0.688,0.035-1.022,0.086c-1.07-1.458-2.907-2.422-4.998-2.422
		c-3.086,0-5.624,2.098-5.947,4.792c-2.585,0.04-4.671,2.141-4.671,4.735c0,2.621,2.124,4.744,4.743,4.744
		c0.065,0,0.127-0.018,0.192-0.02c0.645,1.689,2.27,2.896,4.186,2.896c1.711,0,3.181-0.969,3.939-2.377
		c1.037,0.652,2.262,1.037,3.578,1.037c3.72,0,6.736-3.016,6.736-6.736C27.688,12.778,24.671,9.762,20.951,9.762z M16.858,20.766
		c-0.001,0-0.001,0-0.002,0s-0.001,0-0.002,0c-1.844,0-3.064-1.455-3.064-3.25c0-1.763,1.369-2.395,3.064-5.476
		c0.001,0.001,0.002,0.002,0.002,0.003c0.001-0.001,0.001-0.002,0.002-0.003c1.695,3.081,3.063,3.713,3.063,5.476
		C19.922,19.311,18.702,20.766,16.858,20.766z M21.661,15.786C21.66,15.786,21.66,15.786,21.661,15.786c-0.002,0-0.002,0-0.002,0
		c-1.152,0-1.915-0.907-1.915-2.027c0-1.101,0.855-1.495,1.915-3.418c0,0.001,0,0.002,0.001,0.002c0,0,0-0.001,0.001-0.002
		c1.059,1.923,1.914,2.317,1.914,3.418C23.575,14.878,22.812,15.786,21.661,15.786z"/>
</g>
</svg>
