<?xml version="1.0" encoding="utf-8"?>
<!-- Generator: Adobe Illustrator 15.1.0, SVG Export Plug-In . SVG Version: 6.00 Build 0)  -->
<!DOCTYPE svg PUBLIC "-//W3C//DTD SVG 1.1//EN" "http://www.w3.org/Graphics/SVG/1.1/DTD/svg11.dtd">
<svg version="1.1" id="Ebene_1" xmlns="http://www.w3.org/2000/svg" xmlns:xlink="http://www.w3.org/1999/xlink" x="0px" y="0px"
	 width="32px" height="32px" viewBox="0 0 32 32" enable-background="new 0 0 32 32" xml:space="preserve">
<g>
	<g>
		<polygon fill="#FFFFFF" points="22.371,16.66 22.504,14.792 9.502,14.792 9.635,16.66 		"/>
	</g>
	<g>
		<polygon fill="#FFFFFF" points="22.121,20.178 22.254,18.309 9.752,18.309 9.885,20.178 		"/>
	</g>
	<g>
		<path fill="#FFFFFF" d="M10.268,25.345c0.092,0.511,0.505,1.953,2.277,1.953h6.916c0,0,1.99-0.019,2.268-1.953H10.268z"/>
		<polygon fill="#FFFFFF" points="21.871,23.696 22.004,21.826 10.002,21.826 10.135,23.696 		"/>
	</g>
	<g>
		<path fill="#FFFFFF" d="M9.18,13.142h13.639c0.676-0.308,1.408-0.888,1.755-2.001l0.981-2.666c0,0,1.172-3.773-2.779-3.773h-6.481
			h-0.588H9.224c-3.951,0-2.778,3.773-2.778,3.773l0.981,2.666C7.772,12.253,8.503,12.833,9.18,13.142z"/>
	</g>
</g>
</svg>
