<?xml version="1.0" encoding="utf-8"?>
<!-- Generator: Adobe Illustrator 15.1.0, SVG Export Plug-In . SVG Version: 6.00 Build 0)  -->
<!DOCTYPE svg PUBLIC "-//W3C//DTD SVG 1.1//EN" "http://www.w3.org/Graphics/SVG/1.1/DTD/svg11.dtd">
<svg version="1.1" id="Ebene_1" xmlns="http://www.w3.org/2000/svg" xmlns:xlink="http://www.w3.org/1999/xlink" x="0px" y="0px"
	 width="32px" height="32px" viewBox="0 0 32 32" enable-background="new 0 0 32 32" xml:space="preserve">
<g>
	<path fill="#FFFFFF" d="M13.616,26.456c-5.28-0.37-7.729-3.208-7.566-8.323C10.095,17.554,14.197,21.256,13.616,26.456"/>
	<path fill="#FFFFFF" d="M19.011,26.675C19.01,26.675,19.01,26.675,19.011,26.675c-0.295,0-0.6-0.012-0.913-0.034l-0.586-0.043
		l0.015-0.588c0.123-4.943,4.539-7.488,7.937-6.496l0.494,0.145l-0.054,0.512C25.457,24.425,23.073,26.675,19.011,26.675z
		 M18.8,25.439c3.426,0.104,5.292-1.52,5.808-4.858C22.12,20.179,19.189,22.027,18.8,25.439z"/>
	<rect x="14.841" y="18.593" fill="#FFFFFF" width="1.84" height="12.202"/>
	<path fill="#FFFFFF" d="M19.603,9.489c0,2.122-1.719,3.842-3.842,3.842c-2.121,0-3.842-1.72-3.842-3.842s1.721-3.842,3.842-3.842
		C17.884,5.647,19.603,7.367,19.603,9.489 M21.931,6.899c0.653-1.023,0.581-2.374-0.312-3.268c-0.893-0.893-2.245-0.965-3.268-0.312
		c-0.244-1.206-1.312-2.114-2.59-2.114c-1.277,0-2.344,0.908-2.59,2.114c-1.021-0.653-2.374-0.581-3.267,0.312
		C9.011,4.525,8.938,5.876,9.591,6.899C8.386,7.144,7.478,8.21,7.478,9.489c0,1.278,0.908,2.344,2.113,2.59
		c-0.652,1.022-0.58,2.374,0.313,3.267c0.893,0.895,2.245,0.966,3.267,0.313c0.246,1.206,1.311,2.113,2.59,2.113
		c1.278,0,2.346-0.907,2.59-2.113c1.022,0.652,2.375,0.581,3.268-0.313c0.894-0.893,0.966-2.245,0.312-3.267
		c1.206-0.245,2.114-1.312,2.114-2.59C24.045,8.21,23.137,7.144,21.931,6.899"/>
</g>
</svg>
