<?xml version="1.0" encoding="utf-8"?>
<!-- Generator: Adobe Illustrator 15.1.0, SVG Export Plug-In . SVG Version: 6.00 Build 0)  -->
<!DOCTYPE svg PUBLIC "-//W3C//DTD SVG 1.1//EN" "http://www.w3.org/Graphics/SVG/1.1/DTD/svg11.dtd">
<svg version="1.1" id="Ebene_1" xmlns="http://www.w3.org/2000/svg" xmlns:xlink="http://www.w3.org/1999/xlink" x="0px" y="0px"
	 width="32px" height="32px" viewBox="0 0 32 32" enable-background="new 0 0 32 32" xml:space="preserve">
<g>
	<path fill="#FFFFFF" d="M13.924,8.34c-0.534-2.492-0.947-3.437-1.872-3.437s-1.287,1.176-1.811,3.324
		c-0.173,0.708-1.128,4.17-2.116,7.73C8.904,19.072,11.24,26.69,11.24,26.69c0,0.594-0.113,1.042-0.283,1.382h4.951
		c0,0,2.715,0,2.715-3.469C18.623,24.604,14.662,11.781,13.924,8.34z"/>
	<path fill="#FFFFFF" d="M30.52,17.753c0-4.355-3.414-13.774-5.832-13.825c-2.416,0.051-5.832,9.47-5.832,13.825
		c0,3.857,2.809,5.545,4.947,5.887v4.222h1.768V23.64C27.711,23.299,30.52,21.61,30.52,17.753z"/>
	<path fill="#FFFFFF" d="M5.335,13.877c-0.563,0-0.783,0.722-1.102,2.036C4.003,16.865,1.48,25.947,1.48,25.947s0,2.125,1.652,2.125
		h4.547c0,0,1.654,0,1.654-2.125c0,0-2.41-7.855-2.859-9.964C6.149,14.456,5.898,13.877,5.335,13.877"/>
</g>
</svg>
