<?xml version="1.0" encoding="utf-8"?>
<!-- Generator: Adobe Illustrator 15.1.0, SVG Export Plug-In . SVG Version: 6.00 Build 0)  -->
<!DOCTYPE svg PUBLIC "-//W3C//DTD SVG 1.1//EN" "http://www.w3.org/Graphics/SVG/1.1/DTD/svg11.dtd">
<svg version="1.1" id="pressure" xmlns="http://www.w3.org/2000/svg" xmlns:xlink="http://www.w3.org/1999/xlink" x="0px" y="0px"
	 width="32px" height="32px" viewBox="0 0 32 32" enable-background="new 0 0 32 32" xml:space="preserve">
<g>
	<path fill="#FFFFFF" d="M25.51,15.764c0-5.243-4.266-9.51-9.51-9.51s-9.51,4.267-9.51,9.51c0,0.147,0.048,0.283,0.127,0.396
		c0.122,0.188,0.333,0.313,0.574,0.313H9.17c0.378,0,0.685-0.307,0.685-0.685c0-0.379-0.307-0.686-0.685-0.686H7.889
		c0.131-1.619,0.737-3.105,1.68-4.32l1.009,0.848c0.128,0.107,0.285,0.16,0.44,0.16c0.195,0,0.39-0.083,0.525-0.245
		c0.243-0.289,0.205-0.722-0.084-0.965l-0.962-0.808c1.295-1.19,2.977-1.966,4.832-2.118v1.28c0,0.378,0.307,0.685,0.685,0.685
		s0.685-0.307,0.685-0.685V7.656c1.837,0.156,3.501,0.924,4.788,2.1l-0.982,0.824c-0.29,0.243-0.328,0.676-0.084,0.965
		c0.135,0.162,0.329,0.245,0.524,0.245c0.155,0,0.312-0.053,0.439-0.16l1.033-0.867c0.951,1.218,1.563,2.712,1.695,4.34h-1.305
		c-0.378,0-0.685,0.307-0.685,0.686c0,0.378,0.307,0.685,0.685,0.685h1.979c0.146,0,0.28-0.046,0.391-0.123
		C25.376,16.229,25.51,16.014,25.51,15.764z"/>
	<path fill="#FFFFFF" d="M16,3.771C9.256,3.771,3.77,9.257,3.77,16S9.256,28.229,16,28.229c6.743,0,12.23-5.486,12.23-12.229
		S22.743,3.771,16,3.771z M16,5.14c5.988,0,10.86,4.872,10.86,10.86c0,0.521-0.05,1.028-0.12,1.529h-8.158
		c0.139,0.321,0.233,0.648,0.245,0.979c0.028,0.725-0.259,1.426-0.808,1.975c-0.533,0.536-1.188,0.819-1.894,0.819l-0.099-0.002
		c-0.848-0.032-1.691-0.488-2.373-1.284l-0.022-0.026l-0.021-0.028l-1.803-2.433H5.26C5.189,17.028,5.14,16.521,5.14,16
		C5.14,10.012,10.012,5.14,16,5.14z M13.269,23.785c0-0.455,0.369-0.824,0.824-0.824h3.814c0.455,0,0.824,0.369,0.824,0.824
		s-0.369,0.824-0.824,0.824h-3.814C13.638,24.609,13.269,24.24,13.269,23.785z"/>
	<path fill="#FFFFFF" d="M16.896,16.906l-0.013-0.01l-4.463-3.31c-0.114-0.085-0.242-0.153-0.374-0.207
		c-0.042-0.017-0.084-0.021-0.126-0.034c-0.091-0.027-0.183-0.049-0.274-0.055c-0.074-0.004-0.146,0.004-0.216,0.017
		c-0.036,0.007-0.073,0.008-0.108,0.02c-0.107,0.036-0.209,0.091-0.298,0.179c-0.379,0.38-0.232,0.976,0.081,1.397l3.31,4.463
		c0.507,0.592,1.086,0.914,1.651,0.936c0.073,0.003,0.143-0.008,0.214-0.015c0.048-0.005,0.097-0.006,0.144-0.016
		c0.064-0.013,0.126-0.035,0.188-0.056c0.042-0.015,0.085-0.023,0.125-0.041c0.071-0.03,0.14-0.072,0.207-0.113
		c0.03-0.019,0.062-0.031,0.09-0.051c0.097-0.066,0.189-0.144,0.277-0.232c0.355-0.355,0.535-0.781,0.518-1.23
		c-0.021-0.561-0.348-1.14-0.921-1.632L16.896,16.906z"/>
</g>
</svg>
