<?xml version="1.0" encoding="utf-8"?>
<!-- Generator: Adobe Illustrator 15.1.0, SVG Export Plug-In . SVG Version: 6.00 Build 0)  -->
<!DOCTYPE svg PUBLIC "-//W3C//DTD SVG 1.1//EN" "http://www.w3.org/Graphics/SVG/1.1/DTD/svg11.dtd">
<svg version="1.1" id="Ebene_1" xmlns="http://www.w3.org/2000/svg" xmlns:xlink="http://www.w3.org/1999/xlink" x="0px" y="0px"
	 width="32px" height="32px" viewBox="0 0 32 32" enable-background="new 0 0 32 32" xml:space="preserve">
<g>
	<g>
		<rect x="11.083" y="12.002" fill="#FFFFFF" width="9.865" height="3.18"/>
	</g>
	<g>
		<g>
			<rect x="11.083" y="16.232" width="9.865" height="3.18"/>
			<rect x="11.083" y="16.232" fill="#FFFFFF" width="9.865" height="3.18"/>
		</g>
	</g>
	<g>
		<g>
			<path d="M11.083,24.693v1.466c0,0,0,1.429,1.431,1.435l7.005,0.026c0,0,1.43,0.005,1.43-1.424v-1.503H11.083z"/>
			<path fill="#FFFFFF" d="M11.083,24.693v1.466c0,0,0,1.429,1.431,1.435l7.005,0.026c0,0,1.43,0.005,1.43-1.424v-1.503H11.083z"/>
		</g>
		<g>
			<rect x="11.083" y="20.463" width="9.865" height="3.18"/>
			<rect x="11.083" y="20.463" fill="#FFFFFF" width="9.865" height="3.18"/>
		</g>
	</g>
	<path fill="#FFFFFF" d="M19.572,4.156v-1.35c0,0,0-1.431-1.429-1.428l-4.864,0.006c0,0-1.05,0-1.05,1.051v1.721H19.572z"/>
	<path fill="#FFFFFF" d="M20.097,30.621h-8.194c-2.808,0-3.826-2.289-3.826-3.827V8.852c0-2.808,2.288-3.827,3.826-3.827h8.194
		c2.808,0,3.827,2.289,3.827,3.827v17.942C23.924,29.602,21.635,30.621,20.097,30.621z M11.902,6.726
		C11.552,6.73,9.777,6.854,9.777,8.852v17.942c0.005,0.351,0.129,2.126,2.125,2.126h8.19c0.359-0.005,2.13-0.132,2.13-2.126V8.852
		c-0.005-0.351-0.129-2.126-2.126-2.126H11.902z"/>
</g>
</svg>
