<?xml version="1.0" encoding="utf-8"?>
<!-- Generator: Adobe Illustrator 15.1.0, SVG Export Plug-In . SVG Version: 6.00 Build 0)  -->
<!DOCTYPE svg PUBLIC "-//W3C//DTD SVG 1.1//EN" "http://www.w3.org/Graphics/SVG/1.1/DTD/svg11.dtd">
<svg version="1.1" id="Ebene_1" xmlns="http://www.w3.org/2000/svg" xmlns:xlink="http://www.w3.org/1999/xlink" x="0px" y="0px"
	 width="32px" height="32px" viewBox="0 0 32 32" enable-background="new 0 0 32 32" xml:space="preserve">
<g>
	<g>
		<path fill="#FFFFFF" d="M20.949,19.412v-2.754c0,0-0.002-0.188-0.07-0.426h-9.736c-0.036,0.132-0.059,0.279-0.059,0.449v2.731
			H20.949z"/>
	</g>
	<path fill="#FFFFFF" d="M19.572,4.156v-1.35c0,0,0-1.43-1.428-1.428L13.28,1.384c0,0-1.05,0.001-1.05,1.051v1.721H19.572z"/>
	<path fill="#FFFFFF" d="M20.098,30.621h-8.195c-2.808,0-3.827-2.289-3.827-3.826V8.851c0-2.807,2.289-3.826,3.827-3.826h8.195
		c2.809,0,3.826,2.288,3.826,3.826v17.944C23.924,29.602,21.637,30.621,20.098,30.621z M11.903,6.726
		C11.552,6.73,9.777,6.855,9.777,8.851v17.944c0.005,0.35,0.129,2.125,2.126,2.125h8.191c0.359-0.004,2.129-0.131,2.129-2.125V8.851
		c-0.004-0.351-0.129-2.125-2.125-2.125H11.903z"/>
	<g>
		<rect x="11.084" y="20.463" fill="#FFFFFF" width="9.865" height="3.18"/>
		<path fill="#FFFFFF" d="M11.084,24.693v1.479c0,0,0,1.428,1.43,1.432l7.005,0.018c0,0,1.43,0.004,1.43-1.428v-1.5H11.084z"/>
	</g>
</g>
</svg>
