<?xml version="1.0" encoding="utf-8"?>
<!-- Generator: Adobe Illustrator 15.1.0, SVG Export Plug-In . SVG Version: 6.00 Build 0)  -->
<!DOCTYPE svg PUBLIC "-//W3C//DTD SVG 1.1//EN" "http://www.w3.org/Graphics/SVG/1.1/DTD/svg11.dtd">
<svg version="1.1" id="Ebene_1" xmlns="http://www.w3.org/2000/svg" xmlns:xlink="http://www.w3.org/1999/xlink" x="0px" y="0px"
	 width="32px" height="32px" viewBox="0 0 32 32" enable-background="new 0 0 32 32" xml:space="preserve">
<g>
	<path fill="#FFFFFF" d="M26.125,12.01c-0.111-0.026-2.752-0.602-4.688,0.943c-1.262,1.006-1.899,2.622-1.899,4.803l0.001,5.709
		c-0.021,0.393-0.321,3.834-3.693,3.834c-3.329,0-3.449-3.402-3.452-3.793l-0.016-2.01c0.174-0.008,1.233-0.1,1.233-1.264v-0.976
		c0.547-0.043,2.604-0.35,2.963-2.646c0,0,1.221-7.382,1.203-7.57c-0.051-0.575-0.559-0.999-1.133-0.948h-0.958v-4.18
		c-0.053-0.58-0.564-1.009-1.145-0.957c-0.58,0.051-1.01,0.564-0.957,1.144v3.995h-4.19V3.913C9.341,3.333,8.83,2.903,8.25,2.956
		C7.669,3.006,7.24,3.52,7.292,4.1v3.995H6.329C5.753,8.043,5.247,8.468,5.195,9.042c-0.025,0.304,1.357,7.569,1.357,7.569
		s0.372,2.363,2.674,2.627v1.129c0,0,0,1.125,1.125,1.127h0.276l0.016,2.018c0,1.916,1.087,5.537,5.202,5.537
		c4.081,0,5.342-3.592,5.442-5.537v-5.756c0-1.617,0.415-2.77,1.232-3.428c1.271-1.022,3.201-0.615,3.219-0.611
		c0.472,0.104,0.938-0.189,1.046-0.66C26.891,12.586,26.596,12.117,26.125,12.01z"/>
</g>
</svg>
